<svg id="Capa_1" data-name="Capa 1" xmlns="http://www.w3.org/2000/svg" viewBox="0 0 797.45 797.35"><defs><style>.cls-1{fill:#fccd17;}.cls-2{fill:#080601;}.cls-3,.cls-4{fill:#fdcc0b;}.cls-4{stroke:#fdcc0b;stroke-miterlimit:10;stroke-width:2px;}.cls-5{fill:#1d1d1b;}</style></defs><path class="cls-1" d="M1.61,389.41c9.12-20.48,27.36-33.1,42.4-48.3,63-63.71,126.61-126.89,190-190.26Q302.55,82.29,371,13.68c5.38-5.4,11.73-9,18.47-12.18h18c21.58,10,35,29.32,51.19,45.28,53.16,52.35,105.65,105.38,158.4,158.14Q701,288.85,784.93,372.72c4.83,4.82,7.32,10.92,10.48,16.69v18c-8,18.8-24.48,30.38-38.19,44.14Q591.49,617.89,425.28,783.78c-5.18,5.19-11.49,8.25-17.77,11.53h-18c-18.84-7.94-30.39-24.49-44.17-38.18q-119.77-119-238.92-238.7-47-47-94-93.95c-5-5-7.59-11.16-10.84-17.08ZM771.71,402c.7-13.47-4.5-22.18-12.23-29.91Q605.7,218.38,452,64.63c-9.66-9.66-19.22-19.42-29-28.95-10.47-10.21-22.71-13.39-36.67-8.26-6.58,2.42-11.41,7.28-16.26,12.14Q203.47,206.22,36.81,372.85c-15.61,15.61-15.73,35.37-.3,50.8Q204.72,591.89,372.94,760.1a43.1,43.1,0,0,0,9,7.13c14.39,8.2,29.56,5.48,42.57-7.52L639.35,544.84q60.07-60.08,120.19-120.13C766.5,417.76,771.39,410,771.71,402Z" transform="translate(0 0.03)"/><path class="cls-2" d="M771.71,402c-.32,8-5.21,15.78-12.17,22.73q-60.16,60-120.19,120.13L424.48,759.71c-13,13-28.18,15.72-42.57,7.52a43.1,43.1,0,0,1-9-7.13Q204.73,591.88,36.51,423.65c-15.43-15.43-15.31-35.19.3-50.8Q203.43,206.2,370.07,39.56c4.85-4.86,9.68-9.72,16.26-12.14,14-5.13,26.2-2,36.67,8.26,9.78,9.53,19.34,19.29,29,28.95Q605.74,218.37,759.48,372.07C767.21,379.8,772.41,388.51,771.71,402ZM398.26,748.55c9.7-.14,17.15-4.12,23.71-10.7q76-76.29,152.29-152.37L736.83,422.9c4.5-4.5,8.83-9.1,10.5-15.52,3.22-12.36.23-22.86-8.88-31.91q-37.77-37.5-75.31-75.25l-241-241c-4.27-4.26-8.79-8.08-14.86-9.68-13.82-3.64-24.34,1.48-34,11.21Q262.82,171.53,152.09,282q-46.64,46.64-93.31,93.25c-5.5,5.49-9.29,11.68-10.15,19.49C47.42,405.7,51.57,414.36,59.25,422q105.6,105.39,211,211,52.67,52.66,105.29,105.36C382,744.82,389.48,748.42,398.26,748.55Z" transform="translate(0 0.03)"/><path class="cls-3" d="M398.26,748.55c-8.78-.13-16.25-3.73-22.7-10.21Q323,685.56,270.27,633q-105.48-105.5-211-211c-7.68-7.66-11.83-16.32-10.62-27.27.86-7.81,4.65-14,10.15-19.49q46.74-46.54,93.31-93.25Q262.69,171.4,373.2,60.72c9.7-9.73,20.22-14.85,34-11.21,6.07,1.6,10.59,5.42,14.86,9.68l241,241q37.64,37.65,75.31,75.25c9.11,9,12.1,19.55,8.88,31.91-1.67,6.42-6,11-10.5,15.52L574.26,585.48Q498.09,661.64,422,737.85C415.41,744.43,408,748.41,398.26,748.55ZM135.61,315.4l-.21,0,.28-.12c-1.11,3.82,1.46,7,1.84,10.57,2.52,23.82,15.64,39.64,37.27,48.74,4.5,1.89,7.63,4.84,10.75,8.87-8.9.08-16-4.37-23.85-6.67a101.77,101.77,0,0,0,53.19,40.4c-7.18.64-12.13,3.81-13.73,11.86-7.14-8.95-16.22-13.07-26.26-15.49-2.26-.55-4.48-1.26-6.71-1.88a16.83,16.83,0,0,1-12.43-12.4c-.39-1.42-.89-2.8-1.58-4.93-2.65,8.44-5.24,16.08-8.4,23.5s-6.59,14.93-7.75,23.07c-1.44,10.08-1.38,19.8,5.7,28.37,10.44,12.66,32,18.21,46.36,8.21,1.48-1,2.6-1.19,3.85.1,1.75,1.8-.45,2.15-1.17,2.91-.94,1-2.18,2.12-1.66,3.38.62,1.49,2.39,1.47,3.94,1.51,5.81.12,11.11-1.65,16.21-4.25,1.86-.95,4.15-2.34,5.32.51,1.92,4.68,4.1,2.45,7.32,1.49,2.25-.67,6.1,3.41,8.11-.07,1.73-3,3.31-1.83,5.11-1.34a33.93,33.93,0,0,0,10.29,1.66c2.07-.08,3.68-.9,4-3,.44-2.55-2-2.25-3.39-2.69a30.06,30.06,0,0,0-5.28-.8c1.77-4.43,3.43-8.48,6.52-11.86a11.69,11.69,0,0,0,2.76-5.77c.45-2.82,2-6.65-.2-8.41-1.92-1.55-3.9,2.23-6.08,3.24-.15.07-.31.13-.45.21-5.07,3.14-9.64.88-10.57-5.13-.53-3.45-1.28-6.85-1.89-10.29a30.48,30.48,0,0,1,.12-13.3c3.68,3.8,4.88,9.88,10.29,10.74,5,.79,9.73,2.87,15.46,3.12-1.51-2.81-3-5-3-7.5,0-6.65-2.56-11.12-9.87-12.06,15.25-3.65,29.22-8.78,39.37-21.48a26.05,26.05,0,0,1-10.83-2.07c-1.19-.5-2.84-.84-2.43-2.6,1.1-4.85-.12-11.07,7.17-12.45a10,10,0,0,0,3.46-1.94c13.27-9,20.05-21.51,20.93-38.06a28.36,28.36,0,0,1-17.19,4c-.28-1.64.88-2.61,1.26-3.85.25-.81,1.19-2.14-.68-2-3.28.26-2-1.45-1.46-2.94,2.17-6.47,4.12-13,4.47-19.87.12-2.48-.28-3.44-2.92-2.9-18.18,3.68-33.6,12.25-46,26.1-3.62,4.06-13.69,3.82-16.51-.79a105.12,105.12,0,0,0-17.09-20.75c-10.89-10.48-22.8-19.34-37.07-24.78-3.14-1.2-4.33-.71-5,2.73a146.93,146.93,0,0,0-2.77,25.25c-.06,5.57,0,5.49-5.55,3.94C149.38,323.29,142.47,319.42,135.61,315.4Zm264.18,318c8.44.88,16.44,3.38,24.64,4.51,5.13.7,6.46,1.75,3.95,6.72-2.21,4.36-.82,6.29,3.58,7.05,2.81.49,4.71-1.21,6.82-2.44,6.1-3.56,10.11-9.92,16-13.4C468.08,628,473.4,615.35,476,601.46c1-5.06,2.63-7.08,7-8a13.07,13.07,0,0,0,1.88-.65c3.39-1.31,8.19-1.72,9.8-4.19,1.8-2.77-1.87-6.52-3.24-9.79-1.21-2.9-.39-4.1,2.35-5.08,3.9-1.4,7.64-3.26,11.52-4.71,2.75-1,3.45-2.4,2.35-5.27-1.59-4.18-2.55-8.6-4-12.82-1.15-3.28-1.19-5.39,3-6.41,4.5-1.1,8.78-3,13.21-4.46,2.83-.91,3.46-2.44,2.51-5.24-2.12-6.29-3.64-12.79-6-18.95-1.68-4.29-.11-5.32,3.66-6.28,16.26-4.15,31.92-10.2,47.88-15.31,4.68-1.49,5.49-3.85,3.45-8-6.7-13.73-13.44-27.44-19.8-41.32-1.88-4.12-3.64-3.94-7.12-2.05-23,12.52-44.16,27.82-66.33,41.57-2.52,1.57-2.81,2.82-1,5.46,8.39,12.2,16.41,24.65,24.75,36.88,2,2.93,2.11,4.32-1.64,5.48-4.42,1.37-8.59,3.63-13,4.88-4,1.12-3.92,3-2.46,6.14,1.89,4.06,3.09,8.47,5.23,12.37,2.51,4.57,1.9,6.92-3.12,9.23-8.46,3.91-8.28,4.29-4.12,12.8,3.21,6.55,2.92,7.1-4,9.5-2.1.72-2.88.42-3.22-1.94-.65-4.42-1.52-8.84-2.6-13.18-5.61-22.76-10.61-45.61-13.52-68.91-1.66-13.3-1.55-27-7.65-39.45-1.8-3.66-.46-4.58,3-5.43A130.61,130.61,0,0,0,492.35,443a115,115,0,0,0,28.19-23.62c.78-.92,2.29-1.81,1.6-3.34-.49-1.1-1.77-.6-2.69-.55-7.47.39-15,.28-22.39,1.37a139.89,139.89,0,0,0-60.15,23.8,6.17,6.17,0,0,1-6.81.73c-20.86-9-42-9.07-63.09-1.1-3.7,1.4-5.48.43-7.87-2.33a151.18,151.18,0,0,0-63.65-44.12c-1.46-.53-3.4-1.84-4.64-.52-1.39,1.48.52,3,1.18,4.42,11.13,23.15,28.05,41.13,49.87,54.37,4.77,2.9,6.23,5.25,3.51,10.2-1.16,2.11-1.38,4.75-2,7.15-2.13,8.36-.82,17.64-5.17,25.26-5,8.68-2.54,15.91,2.33,23.11a49.92,49.92,0,0,0,7.35,8.78c2.69,2.48,2.8,4.22.92,7.47-8.53,14.74-10.94,30.31-1.7,45.37,4.49,7.31,4,12.79.35,19.92-6,11.82-4.3,19.3,5.29,28.62,2,2,2.7,3.17.57,5.51a30.61,30.61,0,0,0-3.87,6.35c-1.12,2.11-1.94,4.32.16,6.4s4.26,1,6.35-.07c4.59-2.42,8.62-5.64,12.69-8.81,1.31-1,2.51-2.13,4.37-2.09A154.46,154.46,0,0,0,399.79,633.44ZM575.15,417.91c-4.41,1.34-7.83,2.47-11.3,3.39-2.57.67-3.55,2.29-3.36,4.76.4,5.07,9.82,11.18,14.5,9.17a186,186,0,0,1,21.08-7.5c3.45-1,6.68-2.21,8-6,.41-1.13,1.16-1.35,2.28-1.4,5.72-.31,9.9,3.05,13.43,6.6,2.21,2.21-.4,5.62-1,8.48-.27,1.29-1,2.58-.92,3.84.13,2.61.86,5.25,4.22,5,7.17-.45,14.38.77,21.52-.67,4.18-.85,5.58-3.43,3.65-7.18-1.07-2.06-2.55-3.9-3.64-6-2.44-4.6-.65-8,4.57-8.85,3.28-.51,6.62-.69,9.88-1.33,6.5-1.26,13.11-2.3,18.83-6,1.24-.79,2.54-1.76,2.4-3.53a3.45,3.45,0,0,0-3.39-3.14c-4.88-.34-4.45-3.61-4.54-7-.09-3.2,1.48-7.76-1.58-9.22-2.78-1.33-6.38,1.68-8.69,3.88-4.43,4.21-7,1.94-9.93-1.64-2.4-2.93-4.19-5.31-.2-8.57,2.25-1.83,3.73-4.65,5.41-7.12,5.58-8.26,5.55-8.27-3.71-11.12-.1,0-.13-.29-.33-.75,3.67-3.58,8.28-6.32,11.58-10.49,2.23-2.82,2.25-5.06-1.1-6.87a57.53,57.53,0,0,0-5.71-3c-3.72-1.48-7.54-2.74-11.78-4.26l6.26-5.93c3.13-2.93,3.06-5.54-.49-8.17a52.46,52.46,0,0,0-10.6-6.48,12.46,12.46,0,0,1-6.93-6.62,53.41,53.41,0,0,0-8.42-12.89c-4.62-5.26-10.09-6.17-16.68-4.29-4.94,1.41-9.71,4-15.34,2.46-2.84-.76-5.87.54-8.5,2.19a19.91,19.91,0,0,0-9,14.4c-1.44,9.88-7.6,14.48-16.33,16.2-6.32,1.25-8.87,5.34-10.37,10.69-2.37,8.46,4.37,20.41,12.15,20.37,7.46,0,13.34,5.27,22,3.68A85.2,85.2,0,0,0,570,384.89c-3.51,6.41-3.6,6.24-2.49,12.16C568.9,404.26,567.6,412.26,575.15,417.91ZM291.78,232.13l.87-.07q4.29,16.06,8.6,32.12c2.14,8,2.14,7.93,10.4,7.95,2.53,0,3.94-.52,4.57-3.18,3.94-16.64,8-33.26,12-49.89.23-.95.77-2.38-.19-2.75-2.85-1.1-5.91-.51-8.88-.42-2.27.07-2.22,2.16-2.55,3.7-2.44,11.1-4.83,22.21-7.5,34.55-.78-2.65-1.25-4-1.61-5.48-2.43-9.66-4.79-19.34-7.32-29-.37-1.39-.09-3.25-2.42-3.85-8-2.08-12.2.2-14.23,8.08-.75,2.89-1.48,5.79-2.26,8.68q-2.56,9.42-5.16,18.82c-3.22-9.55-5.28-19-7.39-28.52-1.59-7.17-1.63-6.89-8.73-7.19-4.4-.19-4.39,1.38-3.53,4.88,3.85,15.64,7.49,31.33,11.09,47,.66,2.87,1.45,5.15,5.05,4.45s8.34,2.3,9.86-4.26C285.22,255.82,288.63,244,291.78,232.13ZM467.72,334.79c1-.37,1.48-.56,1.95-.72q13.75-4.8,11.73-18.12c-1.17-7.68-6.9-12.23-16.2-12.49-8.65-.23-17.31-.16-26-.23-1.9,0-3.66-.14-3.65,2.69.07,17,.05,34,0,51,0,1.65.69,2.45,2.38,2.43a45.7,45.7,0,0,1,5.49,0c2.86.28,3.84-.91,3.73-3.71-.17-4.49-.06-9-.06-13.49,0-6.18,2.33-7.74,8.18-5.43a10.05,10.05,0,0,1,4.5,3.84c2.74,4,5.52,7.91,8.21,11.91,5,7.45,8,8.53,17.65,5.91C480.06,350.28,476.34,341,467.72,334.79Zm-70.81,25.58c16.64.05,27.17-11,27.45-28.74S413.93,302.38,397,302.31s-27.32,11.05-27.37,29.16C369.63,349,380.26,360.32,396.91,360.37ZM541.37,243.86c0-7.83-.22-15.67.09-23.48.16-3.9-1.24-5.11-4.85-4.61a14.05,14.05,0,0,1-3.49,0c-3-.34-3.68,1.12-3.58,3.82.16,4.82-.09,9.66.09,14.49.1,2.76-.75,3.87-3.65,3.75-4.82-.2-9.66-.22-14.48,0-3.2.14-4-1.19-3.86-4.11.19-4.49-.31-9,.14-13.48.49-4.8-2.27-4.61-5.47-4.48s-6.14-.9-6,4.46c.39,14.82.13,29.65.13,44.47,0,7.62,0,7.44,7.45,7.43,3.22,0,3.94-1.16,3.85-4.1-.19-5.66.09-11.33-.1-17-.11-2.91.93-3.74,3.72-3.63,4.82.19,9.67.26,14.48,0,3.29-.2,3.89,1.15,3.79,4-.18,5.66.09,11.33-.11,17-.1,2.91,1,3.91,3.75,3.65a18.35,18.35,0,0,1,4,0c3.31.39,4.28-1,4.19-4.24C541.22,259.85,541.37,251.85,541.37,243.86ZM355.46,259.35a31.81,31.81,0,0,0,5,0c4.72-.76,7.6.94,8.36,5.78,1,6.21,4.75,7.55,10.59,7.14,4.15-.29,4.08-1.31,2.75-4.55-6-14.73-11.87-29.54-17.8-44.31-3.32-8.25-3.35-8.19-12.22-7.61-1.84.12-3.06.54-3.8,2.45-6.55,17-13.19,34-19.76,51-.31.79-1.12,1.75.11,2.61,2.48,1.72,11-.44,12.06-3.1,3.83-9.42,3.83-9.42,14.23-9.42Zm91.27-16a76.77,76.77,0,0,1,1.44-9c1.57-5.71,5.49-9.11,11.41-9.59,5.42-.44,9.76,1.53,12.1,6.84.37.84.6,2.14,1.88,2,3.3-.36,7.25-.44,9.35-2.63,1.65-1.72-1-4.78-2.36-6.92a18.4,18.4,0,0,0-3.68-4c-13.71-11.21-35.33-4.22-40.29,13a43.74,43.74,0,0,0-.95,17.81,25.39,25.39,0,0,0,38.23,18.68c4.87-2.85,7.48-7.41,9.4-12.47.28-.75.71-1.8-.06-2.32-2.66-1.81-5.85-2.4-8.88-3-2.58-.5-2.13,2.47-2.79,3.92-2.18,4.72-5.85,7.41-10.89,7.4a12.15,12.15,0,0,1-11.6-7.21C447.16,252,447.46,247.74,446.73,243.33ZM321.63,331c0,7-.08,14,0,21,.12,8.3-1.51,7.1,7.41,7.45,3.48.14,4.28-1.18,4.18-4.3-.18-5.32.08-10.66-.11-16-.1-2.81.8-3.8,3.67-3.7,5.49.19,11-.18,16.49.12,3.91.22,3.29-2.2,3.26-4.46s.93-5.24-3.36-4.91c-3.47.27-7,.05-10.49.05-10,0-9.92,0-9.59-9.86.1-2.78.91-3.81,3.77-3.74,6.49.17,13-.15,19.49.14,3.86.17,3.91-1.94,3.79-4.67-.1-2.43.65-5-3.51-4.91-10.49.22-21,.17-31.48,0-2.93,0-3.64,1.05-3.59,3.79C321.73,315,321.63,323,321.63,331Zm77.68-82.46c0,6.65.16,13.32-.05,20-.18,5.52,3.82,3.23,6.27,3.53,2.6.32,5.23.74,5.1-3.69-.29-10.14-.16-20.3-.05-30.46,0-3.94-1.71-9,.74-11.54s7.58-.87,11.51-.72c3.58.12,4.64-1.08,4.41-4.53-.2-3,.2-5.44-4.26-5.34-12,.27-24,.21-36,0-3.5-.06-4.45,1.05-4.54,4.51-.11,4,.77,5.89,5.13,5.3,2.45-.34,5,.13,7.48-.11,3.19-.3,4.42.68,4.28,4.08C399.12,235.83,399.3,242.16,399.31,248.49Z" transform="translate(0 0.03)"/><path class="cls-2" d="M399.79,633.44a154.46,154.46,0,0,1-26.73,1.85c-1.86,0-3.06,1.07-4.37,2.09-4.07,3.17-8.1,6.39-12.69,8.81-2.09,1.11-4.21,2.19-6.35.07s-1.28-4.29-.16-6.4a30.61,30.61,0,0,1,3.87-6.35c2.13-2.34,1.46-3.53-.57-5.51-9.59-9.32-11.31-16.8-5.29-28.62,3.64-7.13,4.14-12.61-.35-19.92-9.24-15.06-6.83-30.63,1.7-45.37,1.88-3.25,1.77-5-.92-7.47a49.92,49.92,0,0,1-7.35-8.78c-4.87-7.2-7.3-14.43-2.33-23.11,4.35-7.62,3-16.9,5.17-25.26.61-2.4.83-5,2-7.15,2.72-4.95,1.26-7.3-3.51-10.2-21.82-13.24-38.74-31.22-49.87-54.37-.66-1.38-2.57-2.94-1.18-4.42,1.24-1.32,3.18,0,4.64.52A151.18,151.18,0,0,1,359.14,438c2.39,2.76,4.17,3.73,7.87,2.33,21.12-8,42.23-7.95,63.09,1.1a6.17,6.17,0,0,0,6.81-.73,139.89,139.89,0,0,1,60.15-23.8c7.37-1.09,14.92-1,22.39-1.37.92-.05,2.2-.55,2.69.55.69,1.53-.82,2.42-1.6,3.34A115,115,0,0,1,492.35,443a130.61,130.61,0,0,1-37.7,15.25c-3.5.85-4.84,1.77-3,5.43,6.1,12.43,6,26.15,7.65,39.45,2.91,23.3,7.91,46.15,13.52,68.91,1.08,4.34,2,8.76,2.6,13.18.34,2.36,1.12,2.66,3.22,1.94,7-2.4,7.26-2.95,4-9.5-4.16-8.51-4.34-8.89,4.12-12.8,5-2.31,5.63-4.66,3.12-9.23-2.14-3.9-3.34-8.31-5.23-12.37-1.46-3.13-1.56-5,2.46-6.14,4.45-1.25,8.62-3.51,13-4.88,3.75-1.16,3.64-2.55,1.64-5.48-8.34-12.23-16.36-24.68-24.75-36.88-1.82-2.64-1.53-3.89,1-5.46,22.17-13.75,43.38-29.05,66.33-41.57,3.48-1.89,5.24-2.07,7.12,2.05,6.36,13.88,13.1,27.59,19.8,41.32,2,4.19,1.23,6.55-3.45,8-16,5.11-31.62,11.16-47.88,15.31-3.77,1-5.34,2-3.66,6.28,2.4,6.16,3.92,12.66,6,18.95.95,2.8.32,4.33-2.51,5.24-4.43,1.42-8.71,3.36-13.21,4.46-4.15,1-4.11,3.13-3,6.41,1.48,4.22,2.44,8.64,4,12.82,1.1,2.87.4,4.25-2.35,5.27-3.88,1.45-7.62,3.31-11.52,4.71-2.74,1-3.56,2.18-2.35,5.08,1.37,3.27,5,7,3.24,9.79-1.61,2.47-6.41,2.88-9.8,4.19a13.07,13.07,0,0,1-1.88.65c-4.36,1-6,3-7,8-2.64,13.89-8,26.5-21.29,34.42-5.86,3.48-9.87,9.84-16,13.4-2.11,1.23-4,2.93-6.82,2.44-4.4-.76-5.79-2.69-3.58-7.05,2.51-5,1.18-6-3.95-6.72C416.23,636.82,408.23,634.32,399.79,633.44Zm29.74-147.77c.08-5.48-4-9.67-9.64-9.93-4.68-.21-8.69,3.89-8.72,8.91a9.78,9.78,0,0,0,9.93,9.66A8.6,8.6,0,0,0,429.53,485.67Zm-65-2.54q.19-7.92-5.89-8c-4.5-.09-8,3.75-8.08,8.92-.08,4.3,3.22,8.21,7,8.28C361.74,492.36,364.43,488.83,364.57,483.13Z" transform="translate(0 0.03)"/><path class="cls-2" d="M135.62,315.4c6.85,4,13.76,7.89,21.48,10.07,5.54,1.55,5.49,1.63,5.55-3.94a146.93,146.93,0,0,1,2.77-25.25c.64-3.44,1.83-3.93,5-2.73,14.27,5.44,26.18,14.3,37.07,24.78a105.12,105.12,0,0,1,17.09,20.75c2.82,4.61,12.89,4.85,16.51.79,12.37-13.85,27.79-22.42,46-26.1,2.64-.54,3,.42,2.92,2.9-.35,6.91-2.3,13.4-4.47,19.87-.5,1.49-1.82,3.2,1.46,2.94,1.87-.15.93,1.18.68,2-.38,1.24-1.54,2.21-1.26,3.85a28.36,28.36,0,0,0,17.19-4c-.88,16.55-7.66,29.08-20.93,38.06a10,10,0,0,1-3.46,1.94c-7.29,1.38-6.07,7.6-7.17,12.45-.41,1.76,1.24,2.1,2.43,2.6a26.05,26.05,0,0,0,10.83,2.07c-10.15,12.7-24.12,17.83-39.37,21.48,7.31.94,9.89,5.41,9.87,12.06,0,2.5,1.46,4.69,3,7.5-5.73-.25-10.49-2.33-15.46-3.12-5.41-.86-6.61-6.94-10.29-10.74a30.48,30.48,0,0,0-.12,13.3c.61,3.44,1.36,6.84,1.89,10.29.93,6,5.5,8.27,10.57,5.13.14-.08.3-.14.45-.21,2.18-1,4.16-4.79,6.08-3.24,2.18,1.76.65,5.59.2,8.41a11.69,11.69,0,0,1-2.76,5.77c-3.09,3.38-4.75,7.43-6.52,11.86a30.06,30.06,0,0,1,5.28.8c1.37.44,3.83.14,3.39,2.69-.35,2.07-2,2.89-4,3a33.93,33.93,0,0,1-10.29-1.66c-1.8-.49-3.38-1.66-5.11,1.34-2,3.48-5.86-.6-8.11.07-3.22,1-5.4,3.19-7.32-1.49-1.17-2.85-3.46-1.46-5.32-.51-5.1,2.6-10.4,4.37-16.21,4.25-1.55,0-3.32,0-3.94-1.51-.52-1.26.72-2.38,1.66-3.38.72-.76,2.92-1.11,1.17-2.91-1.25-1.29-2.37-1.14-3.85-.1-14.36,10-35.92,4.45-46.36-8.21-7.08-8.57-7.14-18.29-5.7-28.37,1.16-8.14,4.56-15.58,7.75-23.07s5.75-15.06,8.4-23.5c.69,2.13,1.19,3.51,1.58,4.93a16.83,16.83,0,0,0,12.43,12.4c2.23.62,4.45,1.33,6.71,1.88,10,2.42,19.12,6.54,26.26,15.49,1.6-8.05,6.55-11.22,13.73-11.86a101.77,101.77,0,0,1-53.19-40.4c7.83,2.3,14.95,6.75,23.85,6.67-3.12-4-6.25-7-10.75-8.87-21.63-9.1-34.75-24.92-37.27-48.74-.38-3.56-3-6.75-1.84-10.57Z" transform="translate(0 0.03)"/><path class="cls-2" d="M575.15,417.91c-7.55-5.65-6.25-13.65-7.61-20.86-1.11-5.92-1-5.75,2.49-12.16a85.2,85.2,0,0,1,13.05-17.79c-8.62,1.59-14.5-3.72-22-3.68-7.78,0-14.52-11.91-12.15-20.37,1.5-5.35,4-9.44,10.37-10.69,8.73-1.72,14.89-6.32,16.33-16.2a19.91,19.91,0,0,1,9-14.4c2.63-1.65,5.66-2.95,8.5-2.19,5.63,1.51,10.4-1.05,15.34-2.46,6.59-1.88,12.06-1,16.68,4.29a53.41,53.41,0,0,1,8.42,12.89,12.46,12.46,0,0,0,6.93,6.62,52.46,52.46,0,0,1,10.6,6.48c3.55,2.63,3.62,5.24.49,8.17l-6.26,5.93c4.24,1.52,8.06,2.78,11.78,4.26a57.53,57.53,0,0,1,5.71,3c3.35,1.81,3.33,4.05,1.1,6.87-3.3,4.17-7.91,6.91-11.58,10.49.2.46.23.72.33.75,9.26,2.85,9.29,2.86,3.71,11.12-1.68,2.47-3.16,5.29-5.41,7.12-4,3.26-2.2,5.64.2,8.57,2.92,3.58,5.5,5.85,9.93,1.64,2.31-2.2,5.91-5.21,8.69-3.88,3.06,1.46,1.49,6,1.58,9.22.09,3.41-.34,6.68,4.54,7a3.45,3.45,0,0,1,3.39,3.14c.14,1.77-1.16,2.74-2.4,3.53-5.72,3.71-12.33,4.75-18.83,6-3.26.64-6.6.82-9.88,1.33-5.22.81-7,4.25-4.57,8.85,1.09,2.05,2.57,3.89,3.64,6,1.93,3.75.53,6.33-3.65,7.18-7.14,1.44-14.35.22-21.52.67-3.36.21-4.09-2.43-4.22-5-.06-1.26.65-2.55.92-3.84.61-2.86,3.22-6.27,1-8.48-3.53-3.55-7.71-6.91-13.43-6.6-1.12.05-1.87.27-2.28,1.4-1.36,3.75-4.59,4.94-8,6a186,186,0,0,0-21.08,7.5c-4.68,2-14.1-4.1-14.5-9.17-.19-2.47.79-4.09,3.36-4.76C567.32,420.38,570.74,419.25,575.15,417.91Z" transform="translate(0 0.03)"/><path class="cls-4" d="M291.78,232.13c-3.15,11.88-6.56,23.69-9.32,35.66-1.52,6.56-6.29,3.57-9.86,4.26s-4.39-1.58-5.05-4.45c-3.6-15.69-7.24-31.38-11.09-47-.86-3.5-.87-5.07,3.53-4.88,7.1.3,7.14,0,8.73,7.19,2.11,9.48,4.17,19,7.39,28.52q2.58-9.41,5.16-18.82c.78-2.89,1.51-5.79,2.26-8.68,2-7.88,6.22-10.16,14.23-8.08,2.33.6,2.05,2.46,2.42,3.85,2.53,9.64,4.89,19.32,7.32,29,.36,1.43.83,2.83,1.61,5.48,2.67-12.34,5.06-23.45,7.5-34.55.33-1.54.28-3.63,2.55-3.7,3-.09,6-.68,8.88.42,1,.37.42,1.8.19,2.75-4,16.63-8.07,33.25-12,49.89-.63,2.66-2,3.19-4.57,3.18-8.26,0-8.26.09-10.4-7.95q-4.29-16.06-8.6-32.12Z" transform="translate(0 0.03)"/><path class="cls-4" d="M467.72,334.79c8.62,6.21,12.34,15.49,18,23.59-9.63,2.62-12.64,1.54-17.65-5.91-2.69-4-5.47-8-8.21-11.91a10.05,10.05,0,0,0-4.5-3.84c-5.85-2.31-8.17-.75-8.18,5.43,0,4.5-.11,9,.06,13.49.11,2.8-.87,4-3.73,3.71a45.7,45.7,0,0,0-5.49,0c-1.69,0-2.38-.78-2.38-2.43,0-17,0-34,0-51,0-2.83,1.75-2.71,3.65-2.69,8.66.07,17.32,0,26,.23,9.3.26,15,4.81,16.2,12.49q2,13.31-11.73,18.12C469.2,334.23,468.74,334.42,467.72,334.79Zm-11.55-7.87c2.57-.14,5.23-.16,7.86-.47,4-.48,5.71-3.07,5.71-6.87s-1.85-6.09-5.58-6.38c-4.79-.36-9.6-.37-14.4-.52-1.27-.05-2.48.25-2.49,1.75,0,3.8-.92,8.05.48,11.28C448.89,328.34,453.23,326.26,456.17,326.92Z" transform="translate(0 0.03)"/><path class="cls-4" d="M396.91,360.37c-16.65-.05-27.28-11.33-27.24-28.9.05-18.11,10.49-29.23,27.37-29.16s27.59,11.56,27.32,29.32S413.55,360.42,396.91,360.37Zm15.61-29.44c-.08-1.22-.11-2.39-.25-3.54-1.18-9.72-6.22-15-14.58-15.25-8.77-.29-14.21,4.63-15.84,14.44a28.39,28.39,0,0,0,.93,13.3A14.79,14.79,0,0,0,404,348.77C411.16,344.94,412.23,338.05,412.52,330.93Z" transform="translate(0 0.03)"/><path class="cls-4" d="M541.37,243.86c0,8-.15,16,.08,24,.09,3.28-.88,4.63-4.19,4.24a18.35,18.35,0,0,0-4,0c-2.76.26-3.85-.74-3.75-3.65.2-5.66-.07-11.33.11-17,.1-2.89-.5-4.24-3.79-4-4.81.28-9.66.21-14.48,0-2.79-.11-3.83.72-3.72,3.63.19,5.66-.09,11.33.1,17,.09,2.94-.63,4.1-3.85,4.1-7.44,0-7.45.19-7.45-7.43,0-14.82.26-29.65-.13-44.47-.14-5.36,2.95-4.33,6-4.46s6-.32,5.47,4.48c-.45,4.45.05,9-.14,13.48-.13,2.92.66,4.25,3.86,4.11,4.82-.22,9.66-.2,14.48,0,2.9.12,3.75-1,3.65-3.75-.18-4.83.07-9.67-.09-14.49-.1-2.7.61-4.16,3.58-3.82a14.05,14.05,0,0,0,3.49,0c3.61-.5,5,.71,4.85,4.61C541.15,228.19,541.37,236,541.37,243.86Z" transform="translate(0 0.03)"/><path class="cls-4" d="M355.46,259.35H355c-10.4,0-10.4,0-14.23,9.42-1.08,2.66-9.58,4.82-12.06,3.1-1.23-.86-.42-1.82-.11-2.61,6.57-17,13.21-34,19.76-51,.74-1.91,2-2.33,3.8-2.45,8.87-.58,8.9-.64,12.22,7.61,5.93,14.77,11.76,29.58,17.8,44.31,1.33,3.24,1.4,4.26-2.75,4.55-5.84.41-9.61-.93-10.59-7.14-.76-4.84-3.64-6.54-8.36-5.78A31.81,31.81,0,0,1,355.46,259.35Zm-.27-30.19c-2.68,7.38-4.94,13.6-7.31,20.14h14.81Z" transform="translate(0 0.03)"/><path class="cls-4" d="M446.73,243.33c.73,4.41.43,8.63,2.31,12.52a12.15,12.15,0,0,0,11.6,7.21c5,0,8.71-2.68,10.89-7.4.66-1.45.21-4.42,2.79-3.92,3,.58,6.22,1.17,8.88,3,.77.52.34,1.57.06,2.32-1.92,5.06-4.53,9.62-9.4,12.47a25.39,25.39,0,0,1-38.23-18.68,43.74,43.74,0,0,1,.95-17.81c5-17.19,26.58-24.18,40.29-13a18.4,18.4,0,0,1,3.68,4c1.41,2.14,4,5.2,2.36,6.92-2.1,2.19-6.05,2.27-9.35,2.63-1.28.15-1.51-1.15-1.88-2-2.34-5.31-6.68-7.28-12.1-6.84-5.92.48-9.84,3.88-11.41,9.59A76.77,76.77,0,0,0,446.73,243.33Z" transform="translate(0 0.03)"/><path class="cls-4" d="M321.63,331c0-8,.1-16-.05-24-.05-2.74.66-3.83,3.59-3.79,10.49.15,21,.2,31.48,0,4.16-.09,3.41,2.48,3.51,4.91.12,2.73.07,4.84-3.79,4.67-6.49-.29-13,0-19.49-.14-2.86-.07-3.67,1-3.77,3.74-.33,9.87-.43,9.86,9.59,9.86,3.5,0,7,.22,10.49-.05,4.29-.33,3.32,2.57,3.36,4.91s.65,4.68-3.26,4.46c-5.48-.3-11,.07-16.49-.12-2.87-.1-3.77.89-3.67,3.7.19,5.33-.07,10.67.11,16,.1,3.12-.7,4.44-4.18,4.3-8.92-.35-7.29.85-7.41-7.45C321.55,345,321.63,338,321.63,331Z" transform="translate(0 0.03)"/><path class="cls-4" d="M399.31,248.49c0-6.33-.19-12.66.07-19,.14-3.4-1.09-4.38-4.28-4.08-2.47.24-5-.23-7.48.11-4.36.59-5.24-1.31-5.13-5.3.09-3.46,1-4.57,4.54-4.51,12,.19,24,.25,36,0,4.46-.1,4.06,2.38,4.26,5.34.23,3.45-.83,4.65-4.41,4.53-3.93-.15-9.05-1.81-11.51.72s-.7,7.6-.74,11.54c-.11,10.16-.24,20.32.05,30.46.13,4.43-2.5,4-5.1,3.69-2.45-.3-6.45,2-6.27-3.53C399.47,261.81,399.31,255.14,399.31,248.49Z" transform="translate(0 0.03)"/><path class="cls-2" d="M135.68,315.3l-.28.12.22,0Z" transform="translate(0 0.03)"/><path class="cls-1" d="M429.53,485.67a8.6,8.6,0,0,1-8.43,8.64,9.78,9.78,0,0,1-9.93-9.66c0-5,4-9.12,8.72-8.91C425.55,476,429.61,480.19,429.53,485.67Z" transform="translate(0 0.03)"/><path class="cls-1" d="M364.57,483.13c-.14,5.7-2.83,9.23-7,9.16-3.76-.07-7.06-4-7-8.28.1-5.17,3.58-9,8.08-8.92Q364.77,475.21,364.57,483.13Z" transform="translate(0 0.03)"/><path class="cls-4" d="M456.17,326.92c-2.94-.66-7.28,1.42-8.42-1.21-1.4-3.23-.52-7.48-.48-11.28,0-1.5,1.22-1.8,2.49-1.75,4.8.15,9.61.16,14.4.52,3.73.29,5.58,2.7,5.58,6.38S468,326,464,326.45C461.4,326.76,458.74,326.78,456.17,326.92Z" transform="translate(0 0.03)"/><path class="cls-4" d="M412.52,330.93c-.29,7.12-1.36,14-8.49,17.84a14.79,14.79,0,0,1-21.25-8.89,28.39,28.39,0,0,1-.93-13.3c1.63-9.81,7.07-14.73,15.84-14.44,8.36.28,13.4,5.53,14.58,15.25C412.41,328.54,412.44,329.71,412.52,330.93Z" transform="translate(0 0.03)"/><path class="cls-4" d="M355.19,229.16l7.5,20.14H347.88C350.25,242.76,352.51,236.54,355.19,229.16Z" transform="translate(0 0.03)"/><path class="cls-5" d="M303,194.34v11.15H324v9.38H293.2V165.14h30.4v9.38H303V185.1h18.82v9.24Z" transform="translate(0 0.03)"/><path class="cls-5" d="M368.7,214.87H358.12l-10-17.26h-7.45v17.26h-9.81V165.14h19.89a16.49,16.49,0,0,1,16.55,16.48,15,15,0,0,1-2.63,8.56,16.37,16.37,0,0,1-7,5.93Zm-18-40.56H340.65V189h10.08a6.21,6.21,0,0,0,4.76-2.17,7.41,7.41,0,0,0,2-5.22,7.3,7.3,0,0,0-2-5.18A6.28,6.28,0,0,0,350.73,174.31Z" transform="translate(0 0.03)"/><path class="cls-5" d="M412.32,214.87H401.73l-10-17.26h-7.46v17.26h-9.8V165.14h19.89a16.49,16.49,0,0,1,16.55,16.48,15.12,15.12,0,0,1-2.63,8.56,16.37,16.37,0,0,1-7,5.93Zm-18-40.56H384.26V189h10.09a6.21,6.21,0,0,0,4.75-2.17,7.41,7.41,0,0,0,2-5.22,7.3,7.3,0,0,0-2-5.18A6.27,6.27,0,0,0,394.35,174.31Z" transform="translate(0 0.03)"/><path class="cls-5" d="M459.34,208.4a25.89,25.89,0,1,1,0-36.72,26.15,26.15,0,0,1,0,36.72Zm-29.76-6.67a16.67,16.67,0,0,0,22.87,0,17.19,17.19,0,0,0,0-23.45,16.49,16.49,0,0,0-22.87,0,17.19,17.19,0,0,0,0,23.45Z" transform="translate(0 0.03)"/><path class="cls-5" d="M511.62,214.87H501l-10-17.26h-7.46v17.26h-9.8V165.14h19.89a16.49,16.49,0,0,1,16.55,16.48,15.12,15.12,0,0,1-2.63,8.56,16.37,16.37,0,0,1-7,5.93Zm-18-40.56H483.56V189h10.09a6.23,6.23,0,0,0,4.76-2.17,7.46,7.46,0,0,0,2-5.22,7.35,7.35,0,0,0-2-5.18A6.29,6.29,0,0,0,493.65,174.31Z" transform="translate(0 0.03)"/><path class="cls-5" d="M245.88,251.2V235h5.22v26.49h-4l-11.35-16.2v16.2h-5.23V235h4Z" transform="translate(0 0.03)"/><path class="cls-5" d="M278.31,258.08a13.79,13.79,0,1,1,0-19.56,13.91,13.91,0,0,1,0,19.56Zm-15.85-3.55a8.87,8.87,0,0,0,12.18,0,9.16,9.16,0,0,0,0-12.49,8.77,8.77,0,0,0-12.18,0,9.16,9.16,0,0,0,0,12.49Z" transform="translate(0 0.03)"/><path class="cls-5" d="M300.68,250.59v5.94h11.17v5H295.46V235h16.2v5h-11v5.64h10v4.92Z" transform="translate(0 0.03)"/><path class="cls-5" d="M330.84,251.2V235h5.23v26.49h-4l-11.35-16.2v16.2h-5.22V235h4Z" transform="translate(0 0.03)"/><path class="cls-5" d="M353.55,262.06a13.78,13.78,0,1,1,0-27.55,13.51,13.51,0,0,1,6.64,1.68,12.26,12.26,0,0,1,4.75,4.56l-4.5,2.61a7.06,7.06,0,0,0-2.8-2.78,8.29,8.29,0,0,0-4.09-1,8.39,8.39,0,0,0-6.24,2.42,9.53,9.53,0,0,0,0,12.53,8.39,8.39,0,0,0,6.24,2.42,8.53,8.53,0,0,0,4.11-1,6.82,6.82,0,0,0,2.78-2.75l4.5,2.61a12.26,12.26,0,0,1-4.75,4.56A13.41,13.41,0,0,1,353.55,262.06Z" transform="translate(0 0.03)"/><path class="cls-5" d="M390.19,258.08a13.79,13.79,0,1,1,0-19.56,13.93,13.93,0,0,1,0,19.56Zm-15.86-3.55a8.89,8.89,0,0,0,12.19,0,9.16,9.16,0,0,0,0-12.49,8.78,8.78,0,0,0-12.19,0,9.16,9.16,0,0,0,0,12.49Z" transform="translate(0 0.03)"/><path class="cls-5" d="M413.2,251.2V235h5.22v26.49h-4l-11.36-16.2v16.2h-5.22V235h4Z" transform="translate(0 0.03)"/><path class="cls-5" d="M421.37,235h19.49v5h-7.15v21.5h-5.22V240h-7.12Z" transform="translate(0 0.03)"/><path class="cls-5" d="M464,261.53h-5.64l-5.34-9.2h-4v9.2h-5.22V235h10.59a8.77,8.77,0,0,1,8.82,8.78,8.08,8.08,0,0,1-1.4,4.56,8.77,8.77,0,0,1-3.71,3.16Zm-9.58-21.61H449v7.83h5.37a3.32,3.32,0,0,0,2.54-1.15,4,4,0,0,0,1.06-2.78,3.94,3.94,0,0,0-1.06-2.77A3.37,3.37,0,0,0,454.37,239.92Z" transform="translate(0 0.03)"/><path class="cls-5" d="M489.72,261.53H484l-1.59-4.77H471.9l-1.6,4.77h-5.63L473.94,235h6.47Zm-12.53-20.48-3.63,10.83h7.27Z" transform="translate(0 0.03)"/><path class="cls-5" d="M512.84,235h5.38v26.49H513V244.35l-7.45,12.3H505l-7.45-12.27v17.15h-5.23V235h5.38l7.61,12.52Z" transform="translate(0 0.03)"/><path class="cls-5" d="M545.43,258.08a13.93,13.93,0,1,1,4-9.8A13.35,13.35,0,0,1,545.43,258.08Zm-15.86-3.55a8.89,8.89,0,0,0,12.19,0,9.16,9.16,0,0,0,0-12.49,8.78,8.78,0,0,0-12.19,0,9.16,9.16,0,0,0,0,12.49Z" transform="translate(0 0.03)"/><path class="cls-5" d="M561.21,262.06a11.84,11.84,0,0,1-6.58-1.74,9.51,9.51,0,0,1-3.83-4.81l4.47-2.61a6,6,0,0,0,6.09,4,5.4,5.4,0,0,0,3.18-.76,2.36,2.36,0,0,0,1.06-2,2.39,2.39,0,0,0-1.25-2.16,18.28,18.28,0,0,0-4.46-1.7,20,20,0,0,1-5.49-2.46,6.35,6.35,0,0,1-2.5-5.45,7,7,0,0,1,2.54-5.72,9.22,9.22,0,0,1,6.17-2.15,10.09,10.09,0,0,1,9.46,5.94L565.68,243a5.28,5.28,0,0,0-5.07-3.4,4,4,0,0,0-2.54.74,2.32,2.32,0,0,0-1,1.91,2.46,2.46,0,0,0,1,2,15.1,15.1,0,0,0,4,1.67l1.81.6c.33.1.9.32,1.71.64a7.57,7.57,0,0,1,1.66.8,6.65,6.65,0,0,1,2.5,2.35,6.91,6.91,0,0,1,1,3.74,7.08,7.08,0,0,1-2.68,5.83A10.71,10.71,0,0,1,561.21,262.06Z" transform="translate(0 0.03)"/><path class="cls-5" d="M286.43,295v6.22h11.68v5.23H281V278.7h17v5.23H286.43v5.9h10.49V295Z" transform="translate(0 0.03)"/><path class="cls-5" d="M311.42,307a12.35,12.35,0,0,1-6.89-1.82,9.88,9.88,0,0,1-4-5l4.67-2.73a6.24,6.24,0,0,0,6.38,4.24,5.72,5.72,0,0,0,3.33-.8,2.61,2.61,0,0,0-.2-4.39,19.31,19.31,0,0,0-4.68-1.79,20.52,20.52,0,0,1-5.74-2.57,6.66,6.66,0,0,1-2.61-5.7,7.34,7.34,0,0,1,2.65-6,9.65,9.65,0,0,1,6.46-2.25,10.55,10.55,0,0,1,9.9,6.22l-4.6,2.65a5.53,5.53,0,0,0-5.3-3.57,4.19,4.19,0,0,0-2.66.78,2.41,2.41,0,0,0-1,2,2.61,2.61,0,0,0,1.07,2.14,16.22,16.22,0,0,0,4.2,1.74l1.9.63c.34.11.94.33,1.78.68a7.38,7.38,0,0,1,1.75.83,7,7,0,0,1,2.61,2.45,7.29,7.29,0,0,1,1,3.93,7.43,7.43,0,0,1-2.81,6.1A11.25,11.25,0,0,1,311.42,307Z" transform="translate(0 0.03)"/><path class="cls-5" d="M330.31,295v6.22H342v5.23H324.85V278.7H341.8v5.23H330.31v5.9h10.5V295Z" transform="translate(0 0.03)"/><path class="cls-5" d="M355.74,278.7h10.34a9.34,9.34,0,0,1,6.74,2.69,9.38,9.38,0,0,1,0,13.23,9.31,9.31,0,0,1-6.74,2.7h-4.87v9.11h-5.47Zm5.47,13.51h4.87A3.8,3.8,0,0,0,369,291a4.49,4.49,0,0,0,0-6,3.85,3.85,0,0,0-2.89-1.19h-4.87Z" transform="translate(0 0.03)"/><path class="cls-5" d="M402.25,302.82a14.63,14.63,0,0,1-20.44,0,14.1,14.1,0,0,1-4.16-10.26,14.4,14.4,0,1,1,24.6,10.26Zm-16.6-3.72a9.27,9.27,0,0,0,12.75,0,9.57,9.57,0,0,0,0-13.07,9.17,9.17,0,0,0-12.75,0,9.57,9.57,0,0,0,0,13.07Z" transform="translate(0 0.03)"/><path class="cls-5" d="M421.3,292.17,432,306.43h-6.3l-9.91-13v13h-5.46V278.7h5.46v12.24l9.51-12.24h6.3Z" transform="translate(0 0.03)"/><path class="cls-5" d="M440.11,295v6.22H451.8v5.23H434.65V278.7h17v5.23H440.11v5.9h10.5V295Z" transform="translate(0 0.03)"/><path class="cls-5" d="M477.15,278.7h5.62v27.73h-5.42v-18l-7.81,12.87h-.63l-7.8-12.84v17.95h-5.47V278.7h5.63l8,13.11Z" transform="translate(0 0.03)"/><path class="cls-5" d="M511.25,302.82a14.57,14.57,0,1,1,4.2-10.26A13.93,13.93,0,0,1,511.25,302.82Zm-16.59-3.72a9.27,9.27,0,0,0,12.75,0,9.57,9.57,0,0,0,0-13.07,9.17,9.17,0,0,0-12.75,0,9.57,9.57,0,0,0,0,13.07Z" transform="translate(0 0.03)"/><path class="cls-5" d="M535.34,295.61V278.7h5.46v27.73h-4.16l-11.88-17v17h-5.47V278.7h4.16Z" transform="translate(0 0.03)"/><path class="cls-3" d="M1.61,389.41s-3.62,11.16,0,18" transform="translate(0 0.03)"/><path class="cls-3" d="M795.41,389.41s4.58,9.28,0,18" transform="translate(0 0.03)"/><path class="cls-1" d="M388.58,794.91s9.91,5.43,19.7,0S388.58,794.91,388.58,794.91Z" transform="translate(0 0.03)"/><path class="cls-1" d="M389.51,1.5s11.44-3.44,18,0C407.51,1.5,391.87,7,389.51,1.5Z" transform="translate(0 0.03)"/></svg>